<?xml version="1.0" encoding="utf-8"?>
<!-- Generator: Adobe Illustrator 15.0.2, SVG Export Plug-In  -->
<!DOCTYPE svg PUBLIC "-//W3C//DTD SVG 1.1//EN" "http://www.w3.org/Graphics/SVG/1.1/DTD/svg11.dtd" [
	<!ENTITY ns_flows "http://ns.adobe.com/Flows/1.0/">
]>
<svg version="1.1"
	 xmlns="http://www.w3.org/2000/svg" xmlns:xlink="http://www.w3.org/1999/xlink" xmlns:a="http://ns.adobe.com/AdobeSVGViewerExtensions/3.0/"
	 x="0px" y="0px" width="100px" height="50px" viewBox="0.048 0.646 100 50"
	 overflow="visible" enable-background="new 0.048 0.646 100 50" xml:space="preserve">
<defs>
</defs>
<linearGradient id="SVGID_1_" gradientUnits="userSpaceOnUse" x1="56.5234" y1="21.5303" x2="56.5234" y2="43.3303">
	<stop  offset="0" style="stop-color:#90A6BB"/>
	<stop  offset="0.2033" style="stop-color:#738397"/>
	<stop  offset="0.5568" style="stop-color:#4D5A6B"/>
	<stop  offset="0.8345" style="stop-color:#374554"/>
	<stop  offset="1" style="stop-color:#2F3D4C"/>
</linearGradient>
<path fill="url(#SVGID_1_)" d="M62.549,41.976c0,1.064-0.476,1.597-1.428,1.597c-0.646,0-1.163-0.407-1.554-1.222l-7.285-15.446
	c-0.084-0.173-0.198-0.261-0.341-0.261c-0.229,0-0.342,0.153-0.342,0.459v16.408h-1.102V27.226c0-1.066,0.474-1.597,1.426-1.597
	c0.651,0,1.168,0.404,1.547,1.213l7.307,15.431c0.085,0.173,0.193,0.26,0.328,0.26c0.228,0,0.342-0.144,0.342-0.433V25.776h1.102
	V41.976z"/>
<linearGradient id="SVGID_2_" gradientUnits="userSpaceOnUse" x1="70.2471" y1="21.5293" x2="70.2471" y2="43.3305">
	<stop  offset="0" style="stop-color:#90A6BB"/>
	<stop  offset="0.2033" style="stop-color:#738397"/>
	<stop  offset="0.5568" style="stop-color:#4D5A6B"/>
	<stop  offset="0.8345" style="stop-color:#374554"/>
	<stop  offset="1" style="stop-color:#2F3D4C"/>
</linearGradient>
<path fill="url(#SVGID_2_)" d="M76.278,37.32c0,0.214-0.021,0.395-0.062,0.543H65.319c0.081,1.474,0.581,2.657,1.498,3.552
	c0.916,0.893,2.109,1.339,3.579,1.339c0.77,0,1.548-0.127,2.342-0.384c0.891-0.28,1.568-0.664,2.029-1.151l0.77,0.73
	c-1.158,1.189-2.869,1.784-5.141,1.784c-1.833,0-3.321-0.577-4.464-1.728c-1.144-1.152-1.716-2.645-1.716-4.478
	c0-1.799,0.562-3.286,1.684-4.458c1.124-1.172,2.58-1.76,4.372-1.76c1.742,0,3.18,0.567,4.311,1.701
	C75.711,34.146,76.278,35.582,76.278,37.32z M75.178,36.886c-0.133-1.379-0.641-2.495-1.523-3.35
	c-0.885-0.854-2.016-1.282-3.394-1.282s-2.513,0.427-3.405,1.282c-0.893,0.854-1.404,1.971-1.536,3.35H75.178z"/>
<linearGradient id="SVGID_3_" gradientUnits="userSpaceOnUse" x1="80.0898" y1="21.5303" x2="80.0898" y2="43.3299">
	<stop  offset="0" style="stop-color:#90A6BB"/>
	<stop  offset="0.2033" style="stop-color:#738397"/>
	<stop  offset="0.5568" style="stop-color:#4D5A6B"/>
	<stop  offset="0.8345" style="stop-color:#374554"/>
	<stop  offset="1" style="stop-color:#2F3D4C"/>
</linearGradient>
<path fill="url(#SVGID_3_)" d="M82.232,32.514h-3.245v8.557c0,0.975,0.347,1.461,1.04,1.461h0.718v0.978h-0.53
	c-1.511,0-2.268-0.775-2.268-2.327V28.143h1.04v3.393h3.245V32.514z"/>
<linearGradient id="SVGID_4_" gradientUnits="userSpaceOnUse" x1="85.5732" y1="21.5303" x2="85.5732" y2="43.3299">
	<stop  offset="0" style="stop-color:#90A6BB"/>
	<stop  offset="0.2033" style="stop-color:#738397"/>
	<stop  offset="0.5568" style="stop-color:#4D5A6B"/>
	<stop  offset="0.8345" style="stop-color:#374554"/>
	<stop  offset="1" style="stop-color:#2F3D4C"/>
</linearGradient>
<path fill="url(#SVGID_4_)" d="M87.715,32.514h-3.244v8.557c0,0.975,0.348,1.461,1.041,1.461h0.718v0.978h-0.532
	c-1.511,0-2.266-0.775-2.266-2.327V28.143h1.039v3.393h3.244V32.514z"/>
<linearGradient id="SVGID_5_" gradientUnits="userSpaceOnUse" x1="93.8428" y1="21.5298" x2="93.8428" y2="43.3303">
	<stop  offset="0" style="stop-color:#90A6BB"/>
	<stop  offset="0.2033" style="stop-color:#738397"/>
	<stop  offset="0.5568" style="stop-color:#4D5A6B"/>
	<stop  offset="0.8345" style="stop-color:#374554"/>
	<stop  offset="1" style="stop-color:#2F3D4C"/>
</linearGradient>
<path fill="url(#SVGID_5_)" d="M98.771,43.14c0,1.857-0.51,3.335-1.523,4.434c-1.049,1.14-2.493,1.709-4.335,1.709
	c-1.413,0-2.746-0.397-4-1.19l0.36-1.041c0.691,0.505,1.447,0.844,2.266,1.018c0.543,0.114,1.02,0.172,1.423,0.172
	c1.529,0,2.713-0.474,3.554-1.424c0.812-0.908,1.215-2.134,1.215-3.678v-1.214c-0.898,1.207-2.175,1.81-3.826,1.81
	c-1.585,0-2.808-0.521-3.666-1.561c-0.801-0.958-1.202-2.246-1.202-3.864v-6.774h1.017v7.11c0,1.212,0.335,2.199,1.003,2.958
	c0.702,0.8,1.651,1.202,2.849,1.202c1.181,0,2.122-0.405,2.823-1.214c0.668-0.769,1.003-1.751,1.003-2.946v-7.11h1.041V43.14z"/>
<radialGradient id="SVGID_6_" cx="1035.6699" cy="1179.0151" r="179.3937" gradientTransform="matrix(0.1111 -0.0445 0.0445 0.1111 -156.4047 -70.1201)" gradientUnits="userSpaceOnUse">
	<stop  offset="0.0184" style="stop-color:#DFE7EA"/>
	<stop  offset="0.2109" style="stop-color:#D5DEE4"/>
	<stop  offset="0.542" style="stop-color:#BBC8D4"/>
	<stop  offset="0.9695" style="stop-color:#93A8BD"/>
	<stop  offset="1" style="stop-color:#90A6BB"/>
</radialGradient>
<circle fill="url(#SVGID_6_)" cx="22.047" cy="22.051" r="21.649"/>
<path fill="#FDFEFF" d="M22.055,44.104c-9.062,0-17.095-5.435-20.469-13.845C-2.94,18.977,2.558,6.116,13.84,1.591
	C16.47,0.535,19.23,0,22.041,0c9.061,0,17.094,5.435,20.468,13.845c4.525,11.283-0.973,24.144-12.254,28.668
	C27.623,43.568,24.864,44.104,22.055,44.104z M22.041,0.792c-2.709,0-5.369,0.517-7.904,1.534
	C3.258,6.689-2.042,19.087,2.322,29.965c3.253,8.107,10.996,13.346,19.732,13.346c2.707,0,5.367-0.516,7.905-1.533
	c10.876-4.363,16.175-16.761,11.813-27.638C38.521,6.032,30.775,0.792,22.041,0.792z"/>
<path fill="#FFFFFF" d="M13.994,5.561c0,0-0.923,2.458,0.498,3.342c1.97,1.227,5.513,3.227,3.151,9.725
	c-2.132,5.876,2.206,11.14,7.158,13.309c8.914,3.905,8.235,8.407,8.235,8.407c-1.502-6.023-8.547-6.833-8.547-6.833
	c-4.94-0.86-6.824,2.737-9.615,2.046c-4.736-1.172-5.888,0.792-5.888,0.792c10.652,12.061,25.038,5.109,25.038,5.109
	c2.998-4.149,3.62-9.591,3.594-13.618C37.511,11.171,13.994,5.561,13.994,5.561z"/>
<ellipse transform="matrix(0.8963 0.4435 -0.4435 0.8963 6.3166 -0.9948)" fill="#FFFFFF" cx="5.285" cy="13.007" rx="0.681" ry="1.363"/>
<ellipse transform="matrix(0.2043 0.9789 -0.9789 0.2043 16.8694 -14.7523)" fill="#FFFFFF" cx="17.509" cy="3.001" rx="0.681" ry="1.361"/>
<ellipse transform="matrix(-0.7925 0.6099 -0.6099 -0.7925 31.1916 54.8124)" fill="#FFFFFF" cx="6.27" cy="32.713" rx="0.681" ry="1.363"/>
<ellipse transform="matrix(-0.8953 0.4455 -0.4455 -0.8953 81.9053 8.5546)" fill="#FFFFFF" cx="39.947" cy="13.903" rx="0.681" ry="1.363"/>
<ellipse transform="matrix(-0.8391 -0.544 0.544 -0.8391 53.6485 80.6971)" fill="#FFFFFF" cx="38.759" cy="32.414" rx="0.681" ry="1.363"/>
<ellipse transform="matrix(0.6902 0.7236 -0.7236 0.6902 13.8249 -7.7806)" fill="#FFFFFF" cx="15.999" cy="12.255" rx="1.102" ry="1.294"/>
<ellipse transform="matrix(-0.2326 0.9726 -0.9726 -0.2326 42.3361 -15.7568)" fill="#FFFFFF" cx="27.384" cy="8.824" rx="1.102" ry="1.293"/>
<ellipse transform="matrix(0.9755 0.2198 -0.2198 0.9755 5.3909 -1.6317)" fill="#FFFFFF" cx="10.027" cy="23.406" rx="1.102" ry="1.293"/>
<circle fill="#FFFFFF" cx="20.43" cy="24.073" r="1.245"/>
<path fill="#FFFFFF" d="M18.924,24.251c-3.795,0-8.858-0.707-8.914-0.714l-0.146-0.021l0.034-0.143
	c1.337-5.346,5.434-10.783,5.828-11.3c-0.164-3.333,0.825-7.874,1.068-8.931C9.392,5.486,5.838,12.047,5.803,12.115L5.57,11.99
	c0.035-0.068,3.706-6.855,11.367-9.169l0.222-0.066L17.104,2.98c-0.014,0.053-1.309,5.388-1.109,9.129l0.003,0.049l-0.031,0.039
	c-0.044,0.056-4.352,5.608-5.774,11.098c0.985,0.132,6.696,0.871,10.143,0.651c0.302-0.882,2.964-8.5,6.936-15.19l0.229,0.135
	c-4.189,7.053-6.915,15.143-6.941,15.224l-0.03,0.083l-0.087,0.006C19.972,24.237,19.462,24.251,18.924,24.251z"/>
<path fill="#FFFFFF" d="M19.362,37.189l-0.224-0.191c-8.914-7.601-9.242-13.527-9.244-13.586l0.264-0.01
	c0.003,0.057,0.333,5.781,8.93,13.206c-0.011-1.382,0.012-7.358,1.137-11.972l0.257,0.063c-1.266,5.19-1.128,12.126-1.126,12.197
	L19.362,37.189z"/>
<path fill="#FFFFFF" d="M39.828,13.961c-0.016-0.03-1.514-3.033-4.953-5.864c-3.072-2.529-8.35-5.418-16.206-5.093
	c1.765,0.558,6.222,2.229,8.807,5.546l0.023,0.032l0.018,0.23l-0.264,0.019l-0.009-0.15c-3.21-4.086-9.328-5.625-9.39-5.639
	l-0.829-0.203l0.852-0.057c8.379-0.56,13.965,2.474,17.175,5.118c3.481,2.868,4.999,5.913,5.015,5.944L39.828,13.961z"/>
<path fill="#FFFFFF" d="M6.343,33.2l-0.21-0.326C-0.164,23.03,4.917,13.219,4.972,13.12l0.162-0.31l0.083,0.342
	c1.431,6.124,4.875,10.127,4.91,10.167l0.074,0.087l-0.074,0.086c-3.227,3.797-3.745,9.268-3.75,9.322L6.343,33.2z M5.045,13.574
	C4.242,15.329,0.87,23.82,6.158,32.417c0.18-1.304,0.965-5.737,3.696-9.01C9.354,22.799,6.419,19.064,5.045,13.574z"/>
<path fill="#FFFFFF" d="M39.011,32.792l-0.104-0.445c-0.029-0.125-3.045-12.656-11.331-23.405l-0.235-0.306l0.375,0.098
	c0.067,0.018,6.944,1.84,12.325,5.381l0.037,0.024l0.016,0.042c0.025,0.076,2.669,7.707-0.934,18.179L39.011,32.792z M28.026,9.095
	c7.277,9.587,10.421,20.469,11.026,22.756c3.229-9.772,1.006-16.935,0.804-17.541C35.242,11.285,29.531,9.527,28.026,9.095z"/>
<path fill="#FFFFFF" d="M21.409,41.496c-8.85,0-15.032-8.13-15.095-8.215l0.211-0.157c0.065,0.085,6.509,8.55,15.586,8.091
	l0.014,0.264C21.885,41.491,21.646,41.496,21.409,41.496z"/>
<path fill="#FFFFFF" d="M20.796,24.294l-0.155-0.214c8.128-5.858,19.171-9.938,19.283-9.979l0.09,0.249
	C39.904,14.389,28.896,18.458,20.796,24.294z"/>
<path fill="#FFFFFF" d="M38.994,32.778c-9.17-2.59-18.541-8.533-18.635-8.593l0.142-0.223c0.094,0.059,9.432,5.982,18.565,8.56
	L38.994,32.778z"/>
<path fill="#FFFFFF" d="M23.662,41.373l-0.041-0.262c10.146-1.58,14.742-8.313,14.789-8.381l0.22,0.146
	C38.582,32.946,33.922,39.774,23.662,41.373z"/>
<path fill="#FFFFFF" d="M20.319,24.144c-3.216-5.125-4.585-11.842-4.601-11.909l0.261-0.053c0.014,0.067,1.375,6.739,4.562,11.821
	L20.319,24.144z"/>
<path fill="#FFFFFF" d="M5.341,13.127l-0.11-0.24c0.045-0.021,4.688-2.101,11.355-0.921l-0.045,0.26
	C9.952,11.061,5.386,13.106,5.341,13.127z"/>
<path opacity="0.74" fill="#324051" d="M43.211,13.563c-2.618-6.528-7.916-11.179-14.12-13.197
	c-0.205,0.151-0.943,0.745-1.111,1.575c-0.122,0.602,0.002,2.277,1.474,4.137c0.83,1.05,0.883,4.916-2.891,10.456
	c-3.752,5.505-3.273,12.906,1.087,16.162c7.225,5.391,5.435,8.122,5.435,8.122c-1.975-5.475-5.219-5.397-5.219-5.397
	c-5.157-0.707-5.42,2.406-9.484,3.855c-4.62,1.646-4.113,4.195-4.113,4.195c1.086,0.384,2.141,0.682,3.159,0.91
	c4.242,0.882,8.784,0.568,13.108-1.167C42.225,38.527,47.896,25.251,43.211,13.563z"/>
<linearGradient id="SVGID_7_" gradientUnits="userSpaceOnUse" x1="31.4775" y1="26.4136" x2="49.8633" y2="26.4136">
	<stop  offset="0" style="stop-color:#90A6BB"/>
	<stop  offset="0.2033" style="stop-color:#738397"/>
	<stop  offset="0.5568" style="stop-color:#4D5A6B"/>
	<stop  offset="0.8345" style="stop-color:#374554"/>
	<stop  offset="1" style="stop-color:#2F3D4C"/>
</linearGradient>
<path fill="url(#SVGID_7_)" d="M49.456,9.317c-0.068-0.043-0.153,0.063-0.13,0.267c1.215,10.737-3.283,19.432-6.812,24.43
	c6.625-11.225,3.734-20.714,3.734-20.714c-0.062-0.031-0.125,0.062-0.098,0.23c2.339,13.206-6.07,23.311-7.245,24.647
	c-0.001-0.001-0.002-0.003-0.002-0.003c-0.01,0.013-0.02,0.025-0.029,0.038c-0.069,0.076-0.106,0.118-0.106,0.118l0.006,0.011
	c-2.787,3.585-7.296,5.1-7.296,5.1c5.16,0.687,6.85-3.335,6.85-3.335c0.532-0.322,0.759-0.658,0.832-0.958
	C53.005,24.254,49.456,9.317,49.456,9.317z"/>
</svg>
