<?xml version="1.0" encoding="utf-8"?>
<!-- Generator: Adobe Illustrator 15.0.2, SVG Export Plug-In  -->
<!DOCTYPE svg PUBLIC "-//W3C//DTD SVG 1.1//EN" "http://www.w3.org/Graphics/SVG/1.1/DTD/svg11.dtd" [
	<!ENTITY ns_flows "http://ns.adobe.com/Flows/1.0/">
]>
<svg version="1.1"
	 xmlns="http://www.w3.org/2000/svg" xmlns:xlink="http://www.w3.org/1999/xlink" xmlns:a="http://ns.adobe.com/AdobeSVGViewerExtensions/3.0/"
	 x="0px" y="0px" width="600px" height="299px" viewBox="-0.654 0.136 600 299"
	 overflow="visible" enable-background="new -0.654 0.136 600 299" xml:space="preserve">
<defs>
</defs>
<linearGradient id="SVGID_1_" gradientUnits="userSpaceOnUse" x1="342.6992" y1="130.5342" x2="342.6992" y2="262.7109">
	<stop  offset="0" style="stop-color:#90A6BB"/>
	<stop  offset="0.2033" style="stop-color:#738397"/>
	<stop  offset="0.5568" style="stop-color:#4D5A6B"/>
	<stop  offset="0.8345" style="stop-color:#374554"/>
	<stop  offset="1" style="stop-color:#2F3D4C"/>
</linearGradient>
<path fill="url(#SVGID_1_)" d="M379.228,254.498c0,6.455-2.884,9.684-8.655,9.684c-3.915,0-7.053-2.469-9.417-7.409l-44.176-93.653
	c-0.509-1.052-1.199-1.581-2.062-1.581c-1.376,0-2.066,0.93-2.066,2.779v99.489h-6.681V165.07c0-6.459,2.876-9.684,8.636-9.684
	c3.954,0,7.088,2.454,9.382,7.356l44.307,93.559c0.512,1.048,1.171,1.577,1.989,1.577c1.378,0,2.066-0.876,2.066-2.632v-98.96h6.678
	V254.498z"/>
<linearGradient id="SVGID_2_" gradientUnits="userSpaceOnUse" x1="425.9121" y1="130.5356" x2="425.9121" y2="262.7098">
	<stop  offset="0" style="stop-color:#90A6BB"/>
	<stop  offset="0.2033" style="stop-color:#738397"/>
	<stop  offset="0.5568" style="stop-color:#4D5A6B"/>
	<stop  offset="0.8345" style="stop-color:#374554"/>
	<stop  offset="1" style="stop-color:#2F3D4C"/>
</linearGradient>
<path fill="url(#SVGID_2_)" d="M462.479,226.273c0,1.299-0.124,2.396-0.38,3.299h-66.074c0.505,8.934,3.531,16.108,9.09,21.53
	c5.551,5.418,12.787,8.127,21.697,8.127c4.655,0,9.389-0.773,14.195-2.327c5.407-1.702,9.505-4.032,12.308-6.986l4.661,4.433
	c-7.012,7.208-17.396,10.813-31.164,10.813c-11.108,0-20.137-3.494-27.066-10.475c-6.933-6.983-10.4-16.031-10.4-27.144
	c0-10.914,3.403-19.923,10.211-27.032c6.807-7.108,15.643-10.666,26.506-10.666c10.56,0,19.27,3.439,26.129,10.311
	C459.046,207.025,462.479,215.73,462.479,226.273z M455.798,223.638c-0.802-8.358-3.879-15.13-9.236-20.312
	c-5.356-5.182-12.217-7.77-20.574-7.77c-8.359,0-15.237,2.588-20.653,7.77c-5.402,5.182-8.507,11.955-9.31,20.312H455.798z"/>
<linearGradient id="SVGID_3_" gradientUnits="userSpaceOnUse" x1="485.584" y1="130.5342" x2="485.584" y2="262.71">
	<stop  offset="0" style="stop-color:#90A6BB"/>
	<stop  offset="0.2033" style="stop-color:#738397"/>
	<stop  offset="0.5568" style="stop-color:#4D5A6B"/>
	<stop  offset="0.8345" style="stop-color:#374554"/>
	<stop  offset="1" style="stop-color:#2F3D4C"/>
</linearGradient>
<path fill="url(#SVGID_3_)" d="M498.574,197.133h-19.669v51.879c0,5.913,2.1,8.865,6.305,8.865h4.354v5.93h-3.229
	c-9.159,0-13.74-4.704-13.74-14.116v-79.064h6.311v20.574h19.669V197.133z"/>
<linearGradient id="SVGID_4_" gradientUnits="userSpaceOnUse" x1="518.8252" y1="130.5342" x2="518.8252" y2="262.71">
	<stop  offset="0" style="stop-color:#90A6BB"/>
	<stop  offset="0.2033" style="stop-color:#738397"/>
	<stop  offset="0.5568" style="stop-color:#4D5A6B"/>
	<stop  offset="0.8345" style="stop-color:#374554"/>
	<stop  offset="1" style="stop-color:#2F3D4C"/>
</linearGradient>
<path fill="url(#SVGID_4_)" d="M531.812,197.133h-19.675v51.879c0,5.913,2.11,8.865,6.315,8.865h4.352v5.93h-3.227
	c-9.162,0-13.74-4.704-13.74-14.116v-79.064h6.3v20.574h19.675V197.133z"/>
<linearGradient id="SVGID_5_" gradientUnits="userSpaceOnUse" x1="568.9629" y1="130.5342" x2="568.9629" y2="262.7107">
	<stop  offset="0" style="stop-color:#90A6BB"/>
	<stop  offset="0.2033" style="stop-color:#738397"/>
	<stop  offset="0.5568" style="stop-color:#4D5A6B"/>
	<stop  offset="0.8345" style="stop-color:#374554"/>
	<stop  offset="1" style="stop-color:#2F3D4C"/>
</linearGradient>
<path fill="url(#SVGID_5_)" d="M598.848,261.556c0,11.263-3.081,20.225-9.236,26.88c-6.358,6.909-15.119,10.366-26.284,10.366
	c-8.562,0-16.64-2.408-24.25-7.211l2.179-6.309c4.202,3.058,8.783,5.107,13.74,6.161c3.303,0.697,6.184,1.048,8.634,1.048
	c9.26,0,16.443-2.877,21.546-8.632c4.913-5.509,7.36-12.939,7.36-22.301v-7.36c-5.454,7.312-13.185,10.965-23.202,10.965
	c-9.605,0-17.017-3.155-22.221-9.464c-4.855-5.801-7.291-13.614-7.291-23.425v-41.071h6.163v43.102
	c0,7.355,2.029,13.335,6.081,17.942c4.253,4.854,10.01,7.283,17.268,7.283c7.157,0,12.871-2.45,17.125-7.36
	c4.049-4.656,6.077-10.61,6.077-17.865v-43.102h6.312V261.556z"/>
<radialGradient id="SVGID_6_" cx="75.7949" cy="-27.8438" r="178.5484" gradientTransform="matrix(0.6769 -0.2715 0.2715 0.6769 24.1051 129.0922)" gradientUnits="userSpaceOnUse">
	<stop  offset="0.0184" style="stop-color:#DFE7EA"/>
	<stop  offset="0.2109" style="stop-color:#D5DEE4"/>
	<stop  offset="0.542" style="stop-color:#BBC8D4"/>
	<stop  offset="0.9695" style="stop-color:#93A8BD"/>
	<stop  offset="1" style="stop-color:#90A6BB"/>
</radialGradient>
<path fill="url(#SVGID_6_)" d="M255.497,84.834c26.987,67.284-5.68,143.705-72.963,170.692
	c-67.284,26.991-143.702-5.678-170.692-72.96c-26.987-67.284,5.68-143.707,72.963-170.694
	C152.088-15.114,228.51,17.552,255.497,84.834z"/>
<path fill="#FDFEFF" d="M133.708,267.401c-54.931,0-103.642-32.949-124.098-83.94C-17.827,115.054,15.503,37.079,83.91,9.642
	C99.861,3.244,116.588,0,133.627,0c54.936,0,103.648,32.948,124.102,83.939c27.437,68.406-5.895,146.38-74.3,173.818
	C167.476,264.156,150.748,267.401,133.708,267.401z M133.627,4.807c-16.423,0-32.548,3.127-47.928,9.296
	C19.753,40.554-12.379,115.724,14.072,181.671c19.72,49.159,66.681,80.923,119.637,80.923c16.424,0,32.55-3.129,47.93-9.298
	c65.946-26.452,98.078-101.622,71.627-167.567C233.549,36.57,186.587,4.807,133.627,4.807z"/>
<path fill="#FFFFFF" d="M84.845,33.716c0,0-5.6,14.905,3.017,20.266c11.947,7.434,33.418,19.561,19.117,58.954
	c-12.934,35.629,13.362,67.54,43.395,80.7c54.038,23.675,49.925,50.967,49.925,50.967c-9.092-36.521-51.818-41.427-51.818-41.427
	c-29.951-5.216-41.373,16.595-58.304,12.404c-28.713-7.106-35.692,4.802-35.692,4.802c64.583,73.123,151.812,30.974,151.812,30.974
	c18.173-25.153,21.947-58.154,21.789-82.564C227.419,67.735,84.845,33.716,84.845,33.716z"/>
<path fill="#FFFFFF" d="M35.743,80.691c-2.018,4.091-5.313,6.59-7.36,5.582c-2.046-1.011-2.065-5.147-0.047-9.239
	c2.02-4.09,5.313-6.588,7.36-5.578C37.743,72.465,37.761,76.599,35.743,80.691z"/>
<ellipse transform="matrix(0.2049 0.9788 -0.9788 0.2049 102.2121 -89.4444)" fill="#FFFFFF" cx="106.161" cy="18.191" rx="4.131" ry="8.263"/>
<path fill="#FFFFFF" d="M34.733,200.857c-2.777-3.624-3.565-7.683-1.755-9.072c1.809-1.387,5.531,0.419,8.307,4.037
	c2.779,3.624,3.564,7.681,1.756,9.073C41.229,206.283,37.511,204.473,34.733,200.857z"/>
<path fill="#FFFFFF" d="M238.497,86.134c-2.032-4.087-2.023-8.223,0.019-9.239c2.042-1.017,5.344,1.472,7.376,5.557
	c2.034,4.084,2.025,8.223-0.017,9.241C243.828,92.707,240.529,90.219,238.497,86.134z"/>
<path fill="#FFFFFF" d="M231.521,194.279c2.487-3.827,6.052-5.924,7.969-4.683c1.915,1.241,1.449,5.352-1.033,9.177
	c-2.488,3.827-6.055,5.927-7.974,4.685C228.576,202.217,229.036,198.106,231.521,194.279z"/>
<path fill="#FFFFFF" d="M101.6,79.142c-3.142,2.985-7.745,3.239-10.286,0.566c-2.544-2.673-2.061-7.258,1.075-10.242
	c3.135-2.985,7.744-3.242,10.285-0.568C105.217,71.568,104.734,76.156,101.6,79.142z"/>
<path fill="#FFFFFF" d="M164.475,59.992c-4.212-1.009-6.93-4.736-6.071-8.322c0.862-3.589,4.974-5.679,9.185-4.669
	s6.925,4.735,6.064,8.324C172.795,58.91,168.682,61.001,164.475,59.992z"/>
<path fill="#FFFFFF" d="M67.305,143.382c-0.953,4.226-4.644,6.989-8.241,6.176c-3.601-0.811-5.741-4.895-4.787-9.116
	c0.952-4.228,4.641-6.992,8.24-6.18C66.116,135.076,68.26,139.158,67.305,143.382z"/>
<path fill="#FFFFFF" d="M131.356,146.926c-0.535,4.134-4.32,7.054-8.458,6.519c-4.134-0.535-7.057-4.322-6.521-8.457
	c0.538-4.137,4.325-7.055,8.458-6.521C128.974,139.002,131.889,142.789,131.356,146.926z"/>
<path fill="#FFFFFF" d="M114.731,147.036c-23.002,0-53.702-4.282-54.053-4.332l-0.881-0.124l0.216-0.863
	c8.106-32.414,32.941-65.382,35.339-68.51c-1.005-20.215,4.991-47.743,6.467-54.153C56.94,33.261,35.392,73.048,35.178,73.453
	l-1.416-0.751c0.22-0.414,22.483-41.564,68.927-55.593l1.344-0.406l-0.334,1.364c-0.08,0.324-7.94,32.669-6.731,55.352l0.016,0.301
	l-0.184,0.236c-0.266,0.339-26.381,33.999-35.01,67.284c5.967,0.803,40.589,5.277,61.492,3.953
	c1.833-5.352,17.965-51.539,42.063-92.104l1.377,0.818c-25.404,42.764-41.931,91.813-42.095,92.304l-0.17,0.507l-0.535,0.038
	C121.084,146.951,117.984,147.036,114.731,147.036z"/>
<path fill="#FFFFFF" d="M117.393,225.477l-1.361-1.16C61.994,178.234,60.003,142.3,59.99,141.942l1.601-0.063
	c0.014,0.349,2.008,35.055,54.137,80.066c-0.067-8.379,0.071-44.61,6.894-72.579l1.556,0.38
	c-7.675,31.463-6.834,73.522-6.825,73.943L117.393,225.477z"/>
<path fill="#FFFFFF" d="M241.472,84.648c-0.089-0.182-9.175-18.386-30.03-35.551c-18.628-15.331-50.624-32.853-98.258-30.878
	c10.706,3.379,37.732,13.513,53.401,33.63l0.15,0.192l0.097,1.399l-1.599,0.111l-0.062-0.91
	c-19.454-24.779-56.548-34.097-56.922-34.188l-5.027-1.231l5.165-0.347c50.8-3.395,84.671,14.997,104.132,31.033
	c21.096,17.383,30.302,35.85,30.393,36.034L241.472,84.648z"/>
<path fill="#FFFFFF" d="M38.454,201.292l-1.266-1.978c-38.187-59.681-7.375-119.168-7.059-119.763l1-1.883l0.486,2.076
	c8.695,37.123,29.568,61.4,29.778,61.641l0.453,0.52L61.4,142.43c-19.566,23.024-22.709,56.191-22.739,56.523L38.454,201.292z
	 M30.586,82.297c-4.863,10.643-25.31,62.124,6.753,114.244c1.084-7.906,5.851-34.786,22.405-54.631
	C56.712,138.227,38.914,115.584,30.586,82.297z"/>
<path fill="#FFFFFF" d="M236.524,198.819l-0.635-2.7c-0.18-0.76-18.457-76.732-68.693-141.9l-1.432-1.857l2.269,0.593
	c0.417,0.109,42.107,11.154,74.729,32.625l0.224,0.147l0.091,0.252c0.164,0.46,16.189,46.731-5.652,110.218L236.524,198.819z
	 M169.92,55.144c44.124,58.126,63.182,124.096,66.854,137.971c19.579-59.25,6.095-102.674,4.879-106.348
	C213.667,68.415,179.052,57.762,169.92,55.144z"/>
<path fill="#FFFFFF" d="M129.797,251.594c-53.652,0-91.134-49.295-91.517-49.807l1.283-0.959
	c0.388,0.519,39.457,51.842,94.503,49.057l0.08,1.601C132.689,251.559,131.233,251.594,129.797,251.594z"/>
<path fill="#FFFFFF" d="M126.083,147.297l-0.938-1.3c49.281-35.516,116.23-60.255,116.902-60.501l0.55,1.504
	C241.93,87.246,175.182,111.913,126.083,147.297z"/>
<path fill="#FFFFFF" d="M236.416,198.73c-55.605-15.7-112.413-51.736-112.98-52.099l0.862-1.351
	c0.566,0.361,57.179,36.272,112.554,51.908L236.416,198.73z"/>
<path fill="#FFFFFF" d="M143.464,250.843l-0.247-1.583c61.512-9.583,89.382-50.408,89.655-50.819l1.333,0.889
	C233.926,199.747,205.664,241.153,143.464,250.843z"/>
<path fill="#FFFFFF" d="M123.188,146.382c-19.491-31.071-27.797-71.8-27.879-72.208l1.571-0.314
	c0.081,0.405,8.333,40.853,27.664,71.67L123.188,146.382z"/>
<path fill="#FFFFFF" d="M32.372,79.591l-0.668-1.457c0.28-0.127,28.428-12.737,68.854-5.585l-0.278,1.577
	C60.335,67.059,32.647,79.464,32.372,79.591z"/>
<path opacity="0.74" fill="#324051" d="M261.98,82.235c-15.877-39.578-47.997-67.778-85.608-80.015
	c-1.243,0.92-5.711,4.515-6.734,9.552c-0.745,3.648,0.012,13.805,8.931,25.083c5.026,6.362,5.358,29.801-17.523,63.391
	c-22.739,33.372-19.859,78.249,6.593,97.99c43.797,32.686,32.951,49.244,32.951,49.244c-11.975-33.194-31.645-32.729-31.645-32.729
	c-31.273-4.284-32.858,14.591-57.499,23.376c-28.01,9.981-24.948,25.434-24.948,25.434c6.593,2.33,12.979,4.142,19.153,5.523
	c25.73,5.35,53.264,3.441,79.485-7.075C255.998,233.587,290.402,153.099,261.98,82.235z"/>
<linearGradient id="SVGID_7_" gradientUnits="userSpaceOnUse" x1="190.8481" y1="160.1431" x2="302.3193" y2="160.1431">
	<stop  offset="0" style="stop-color:#90A6BB"/>
	<stop  offset="0.2033" style="stop-color:#738397"/>
	<stop  offset="0.5568" style="stop-color:#4D5A6B"/>
	<stop  offset="0.8345" style="stop-color:#374554"/>
	<stop  offset="1" style="stop-color:#2F3D4C"/>
</linearGradient>
<path fill="url(#SVGID_7_)" d="M299.851,56.488c-0.421-0.258-0.935,0.385-0.793,1.625c7.366,65.093-19.899,117.81-41.298,148.114
	c40.169-68.059,22.633-125.593,22.633-125.593c-0.365-0.193-0.757,0.371-0.578,1.397c14.173,80.063-36.812,141.335-43.94,149.437
	c-0.004-0.008-0.011-0.016-0.011-0.016c-0.056,0.078-0.116,0.15-0.175,0.226c-0.413,0.466-0.642,0.71-0.642,0.71l0.036,0.07
	c-16.906,21.743-44.235,30.918-44.235,30.918c31.281,4.165,41.517-20.224,41.517-20.224c3.239-1.951,4.615-3.988,5.054-5.803
	C321.357,147.054,299.851,56.488,299.851,56.488z"/>
</svg>
