<?xml version="1.0" encoding="utf-8"?>
<!-- Generator: Adobe Illustrator 15.0.2, SVG Export Plug-In  -->
<!DOCTYPE svg PUBLIC "-//W3C//DTD SVG 1.1//EN" "http://www.w3.org/Graphics/SVG/1.1/DTD/svg11.dtd" [
	<!ENTITY ns_flows "http://ns.adobe.com/Flows/1.0/">
]>
<svg version="1.1"
	 xmlns="http://www.w3.org/2000/svg" xmlns:xlink="http://www.w3.org/1999/xlink" xmlns:a="http://ns.adobe.com/AdobeSVGViewerExtensions/3.0/"
	 x="0px" y="0px" width="200px" height="100px" viewBox="-0.217 -0.089 200 100"
	 overflow="visible" enable-background="new -0.217 -0.089 200 100" xml:space="preserve">
<defs>
</defs>
<linearGradient id="SVGID_1_" gradientUnits="userSpaceOnUse" x1="114.0508" y1="43.4424" x2="114.0508" y2="87.4309">
	<stop  offset="0" style="stop-color:#90A6BB"/>
	<stop  offset="0.2033" style="stop-color:#738397"/>
	<stop  offset="0.5568" style="stop-color:#4D5A6B"/>
	<stop  offset="0.8345" style="stop-color:#374554"/>
	<stop  offset="1" style="stop-color:#2F3D4C"/>
</linearGradient>
<path fill="url(#SVGID_1_)" d="M126.208,84.698c0,2.147-0.96,3.223-2.881,3.223c-1.304,0-2.348-0.822-3.134-2.466l-14.702-31.167
	c-0.169-0.35-0.399-0.526-0.687-0.526c-0.459,0-0.688,0.31-0.688,0.925v33.11h-2.224v-32.86c0-2.15,0.957-3.223,2.874-3.223
	c1.315,0,2.358,0.816,3.123,2.448l14.745,31.136c0.17,0.35,0.39,0.525,0.661,0.525c0.459,0,0.688-0.292,0.688-0.876V52.012h2.224
	V84.698z"/>
<linearGradient id="SVGID_2_" gradientUnits="userSpaceOnUse" x1="141.7441" y1="43.4429" x2="141.7441" y2="87.4301">
	<stop  offset="0" style="stop-color:#90A6BB"/>
	<stop  offset="0.2033" style="stop-color:#738397"/>
	<stop  offset="0.5568" style="stop-color:#4D5A6B"/>
	<stop  offset="0.8345" style="stop-color:#374554"/>
	<stop  offset="1" style="stop-color:#2F3D4C"/>
</linearGradient>
<path fill="url(#SVGID_2_)" d="M153.914,75.304c0,0.432-0.042,0.797-0.127,1.097h-21.989c0.167,2.974,1.175,5.362,3.024,7.166
	c1.848,1.804,4.256,2.704,7.222,2.704c1.55,0,3.125-0.257,4.724-0.774c1.799-0.567,3.164-1.342,4.097-2.325l1.551,1.476
	c-2.334,2.398-5.79,3.598-10.371,3.598c-3.697,0-6.702-1.163-9.008-3.485c-2.308-2.325-3.462-5.336-3.462-9.034
	c0-3.632,1.133-6.631,3.398-8.996c2.266-2.366,5.206-3.55,8.821-3.55c3.515,0,6.413,1.144,8.695,3.431
	C152.771,68.898,153.914,71.796,153.914,75.304z M151.69,74.427c-0.268-2.781-1.291-5.035-3.074-6.76
	c-1.782-1.724-4.065-2.586-6.847-2.586c-2.782,0-5.071,0.862-6.873,2.586c-1.799,1.725-2.832,3.979-3.099,6.76H151.69z"/>
<linearGradient id="SVGID_3_" gradientUnits="userSpaceOnUse" x1="161.6035" y1="43.4429" x2="161.6035" y2="87.4306">
	<stop  offset="0" style="stop-color:#90A6BB"/>
	<stop  offset="0.2033" style="stop-color:#738397"/>
	<stop  offset="0.5568" style="stop-color:#4D5A6B"/>
	<stop  offset="0.8345" style="stop-color:#374554"/>
	<stop  offset="1" style="stop-color:#2F3D4C"/>
</linearGradient>
<path fill="url(#SVGID_3_)" d="M165.927,65.606h-6.546v17.266c0,1.967,0.698,2.95,2.098,2.95h1.449v1.974h-1.074
	c-3.049,0-4.573-1.565-4.573-4.697V56.786h2.101v6.847h6.546V65.606z"/>
<linearGradient id="SVGID_4_" gradientUnits="userSpaceOnUse" x1="172.666" y1="43.4429" x2="172.666" y2="87.4306">
	<stop  offset="0" style="stop-color:#90A6BB"/>
	<stop  offset="0.2033" style="stop-color:#738397"/>
	<stop  offset="0.5568" style="stop-color:#4D5A6B"/>
	<stop  offset="0.8345" style="stop-color:#374554"/>
	<stop  offset="1" style="stop-color:#2F3D4C"/>
</linearGradient>
<path fill="url(#SVGID_4_)" d="M176.988,65.606h-6.548v17.266c0,1.967,0.703,2.95,2.102,2.95h1.448v1.974h-1.073
	c-3.05,0-4.573-1.565-4.573-4.697V56.786h2.097v6.847h6.548V65.606z"/>
<linearGradient id="SVGID_5_" gradientUnits="userSpaceOnUse" x1="189.3516" y1="43.4424" x2="189.3516" y2="87.4309">
	<stop  offset="0" style="stop-color:#90A6BB"/>
	<stop  offset="0.2033" style="stop-color:#738397"/>
	<stop  offset="0.5568" style="stop-color:#4D5A6B"/>
	<stop  offset="0.8345" style="stop-color:#374554"/>
	<stop  offset="1" style="stop-color:#2F3D4C"/>
</linearGradient>
<path fill="url(#SVGID_5_)" d="M199.299,87.046c0,3.748-1.027,6.731-3.074,8.946c-2.117,2.299-5.032,3.449-8.749,3.449
	c-2.849,0-5.536-0.801-8.07-2.4l0.726-2.1c1.398,1.018,2.924,1.7,4.572,2.05c1.1,0.232,2.059,0.349,2.873,0.349
	c3.083,0,5.474-0.958,7.172-2.874c1.635-1.833,2.449-4.306,2.449-7.421v-2.449c-1.814,2.433-4.388,3.649-7.722,3.649
	c-3.196,0-5.663-1.05-7.396-3.15c-1.615-1.93-2.426-4.53-2.426-7.795V63.632h2.051v14.345c0,2.448,0.676,4.437,2.023,5.971
	c1.416,1.615,3.331,2.424,5.747,2.424c2.382,0,4.283-0.816,5.7-2.449c1.347-1.55,2.021-3.532,2.021-5.946V63.632h2.102V87.046z"/>
<radialGradient id="SVGID_6_" cx="459.1641" cy="719.6621" r="178.5191" gradientTransform="matrix(0.2253 -0.0904 0.0904 0.2253 -145.9281 -90.7873)" gradientUnits="userSpaceOnUse">
	<stop  offset="0.0184" style="stop-color:#DFE7EA"/>
	<stop  offset="0.2109" style="stop-color:#D5DEE4"/>
	<stop  offset="0.542" style="stop-color:#BBC8D4"/>
	<stop  offset="0.9695" style="stop-color:#93A8BD"/>
	<stop  offset="1" style="stop-color:#90A6BB"/>
</radialGradient>
<circle fill="url(#SVGID_6_)" cx="44.485" cy="44.496" r="43.684"/>
<path fill="#FDFEFF" d="M44.498,88.992c-18.281,0-34.492-10.966-41.3-27.936C-5.934,38.29,5.159,12.34,27.925,3.209
	C33.233,1.08,38.801,0,44.471,0c18.283,0,34.494,10.965,41.302,27.935c9.13,22.766-1.962,48.716-24.728,57.848
	C55.735,87.912,50.169,88.992,44.498,88.992z M44.471,1.6c-5.465,0-10.832,1.041-15.95,3.094C6.572,13.497-4.12,38.513,4.683,60.461
	c6.563,16.359,22.19,26.932,39.815,26.932c5.466,0,10.832-1.042,15.952-3.095c21.946-8.803,32.64-33.82,23.837-55.767
	C77.725,12.171,62.097,1.6,44.471,1.6z"/>
<path fill="#FFFFFF" d="M28.236,11.221c0,0-1.863,4.96,1.004,6.745c3.977,2.474,11.122,6.51,6.362,19.62
	c-4.305,11.857,4.447,22.478,14.441,26.857C68.028,72.322,66.66,81.404,66.66,81.404C63.633,69.25,49.414,67.617,49.414,67.617
	c-9.968-1.736-13.769,5.523-19.403,4.128c-9.556-2.364-11.879,1.599-11.879,1.599c21.494,24.335,50.523,10.309,50.523,10.309
	c6.048-8.372,7.304-19.354,7.251-27.478C75.686,22.542,28.236,11.221,28.236,11.221z"/>
<ellipse transform="matrix(0.8965 0.4429 -0.4429 0.8965 12.7284 -2.0076)" fill="#FFFFFF" cx="10.662" cy="26.246" rx="1.375" ry="2.75"/>
<ellipse transform="matrix(0.2053 0.9787 -0.9787 0.2053 34.0036 -29.7663)" fill="#FFFFFF" cx="35.33" cy="6.054" rx="1.375" ry="2.751"/>
<ellipse transform="matrix(-0.7928 0.6095 -0.6095 -0.7928 62.9097 110.6278)" fill="#FFFFFF" cx="12.649" cy="66.008" rx="1.375" ry="2.75"/>
<ellipse transform="matrix(-0.8952 0.4457 -0.4457 -0.8952 165.2595 17.2463)" fill="#FFFFFF" cx="80.602" cy="28.053" rx="1.375" ry="2.749"/>
<ellipse transform="matrix(-0.8392 -0.5439 0.5439 -0.8392 108.2591 162.8234)" fill="#FFFFFF" cx="78.205" cy="65.405" rx="1.375" ry="2.75"/>
<ellipse transform="matrix(0.6894 0.7244 -0.7244 0.6894 27.9373 -15.702)" fill="#FFFFFF" cx="32.28" cy="24.729" rx="2.223" ry="2.61"/>
<ellipse transform="matrix(-0.2332 0.9724 -0.9724 -0.2332 85.4544 -31.7752)" fill="#FFFFFF" cx="55.255" cy="17.804" rx="2.223" ry="2.61"/>
<ellipse transform="matrix(0.9755 0.22 -0.22 0.9755 10.8878 -3.2939)" fill="#FFFFFF" cx="20.23" cy="47.229" rx="2.222" ry="2.608"/>
<circle fill="#FFFFFF" cx="41.222" cy="48.575" r="2.513"/>
<path fill="#FFFFFF" d="M38.183,48.934c-7.655,0-17.873-1.425-17.989-1.442L19.9,47.451l0.072-0.287
	c2.697-10.788,10.963-21.759,11.76-22.8c-0.334-6.727,1.661-15.889,2.152-18.022c-14.936,4.728-22.106,17.969-22.178,18.104
	l-0.471-0.25c0.072-0.138,7.481-13.833,22.938-18.501l0.447-0.135L34.51,6.013c-0.025,0.107-2.642,10.872-2.24,18.421l0.007,0.1
	l-0.062,0.078c-0.089,0.113-8.78,11.315-11.652,22.393c1.987,0.267,13.509,1.757,20.465,1.315
	c0.61-1.781,5.979-17.152,13.999-30.652l0.459,0.272C47.03,32.172,41.53,48.495,41.477,48.659l-0.058,0.169l-0.179,0.013
	C40.297,48.906,39.266,48.934,38.183,48.934z"/>
<path fill="#FFFFFF" d="M39.068,75.039l-0.453-0.386c-17.984-15.337-18.646-27.295-18.65-27.415l0.532-0.021
	c0.004,0.116,0.668,11.666,18.018,26.646c-0.022-2.788,0.023-14.846,2.294-24.154l0.518,0.126
	c-2.555,10.472-2.274,24.469-2.271,24.609L39.068,75.039z"/>
<path fill="#FFFFFF" d="M80.362,28.171c-0.03-0.061-3.054-6.119-9.995-11.832C64.169,11.237,53.521,5.406,37.668,6.063
	c3.562,1.125,12.557,4.497,17.771,11.192l0.051,0.064l0.032,0.466l-0.532,0.037l-0.021-0.303
	C48.494,9.273,36.148,6.172,36.024,6.142l-1.672-0.41l1.718-0.116c16.906-1.129,28.179,4.991,34.655,10.328
	c7.021,5.785,10.085,11.931,10.116,11.992L80.362,28.171z"/>
<path fill="#FFFFFF" d="M12.797,66.99l-0.422-0.658c-12.707-19.863-2.454-39.66-2.348-39.858l0.332-0.626l0.162,0.691
	c2.893,12.354,9.841,20.434,9.91,20.514l0.15,0.173L20.434,47.4c-6.512,7.663-7.558,18.701-7.567,18.812L12.797,66.99z
	 M10.179,27.389c-1.618,3.542-8.424,20.675,2.247,38.021c0.36-2.631,1.947-11.577,7.457-18.181
	C18.873,46.002,12.95,38.467,10.179,27.389z"/>
<path fill="#FFFFFF" d="M78.715,66.167l-0.211-0.899c-0.061-0.253-6.142-25.537-22.861-47.225l-0.477-0.618l0.756,0.197
	c0.138,0.037,14.013,3.712,24.869,10.858l0.075,0.049l0.03,0.083c0.055,0.153,5.388,15.552-1.881,36.681L78.715,66.167z
	 M56.55,18.352c14.685,19.345,21.026,41.3,22.249,45.917c6.516-19.719,2.027-34.17,1.623-35.393
	C71.108,22.769,59.588,19.223,56.55,18.352z"/>
<path fill="#FFFFFF" d="M43.196,83.73c-17.855,0-30.33-16.405-30.457-16.575l0.427-0.319c0.129,0.172,13.132,17.252,31.451,16.327
	l0.026,0.532C44.158,83.719,43.675,83.73,43.196,83.73z"/>
<path fill="#FFFFFF" d="M41.96,49.021l-0.312-0.433C58.049,36.769,80.33,28.535,80.554,28.453l0.184,0.5
	C80.514,29.036,58.301,37.245,41.96,49.021z"/>
<path fill="#FFFFFF" d="M78.68,66.138c-18.506-5.225-37.412-17.218-37.6-17.338l0.285-0.449c0.189,0.12,19.03,12.071,37.459,17.274
	L78.68,66.138z"/>
<path fill="#FFFFFF" d="M47.744,83.481l-0.082-0.527c20.472-3.189,29.746-16.775,29.837-16.913l0.445,0.296
	C77.851,66.477,68.445,80.257,47.744,83.481z"/>
<path fill="#FFFFFF" d="M40.997,48.716c-6.487-10.34-9.251-23.896-9.279-24.031l0.523-0.104c0.026,0.135,2.773,13.596,9.207,23.852
	L40.997,48.716z"/>
<path fill="#FFFFFF" d="M10.772,26.488l-0.222-0.485c0.094-0.042,9.461-4.239,22.914-1.859l-0.092,0.525
	C20.079,22.317,10.864,26.446,10.772,26.488z"/>
<path opacity="0.74" fill="#324051" d="M87.188,27.368C81.903,14.196,71.214,4.812,58.696,0.739c-0.413,0.306-1.9,1.502-2.241,3.179
	c-0.247,1.214,0.004,4.594,2.973,8.348c1.673,2.117,1.783,9.917-5.832,21.096c-7.568,11.107-6.608,26.042,2.194,32.611
	c14.575,10.877,10.966,16.388,10.966,16.388C62.771,71.314,56.225,71.47,56.225,71.47c-10.408-1.426-10.936,4.856-19.137,7.779
	c-9.321,3.321-8.302,8.465-8.302,8.465c2.193,0.775,4.319,1.378,6.374,1.837c8.562,1.781,17.727,1.146,26.453-2.354
	C85.197,77.738,96.646,50.952,87.188,27.368z"/>
<linearGradient id="SVGID_7_" gradientUnits="userSpaceOnUse" x1="63.5137" y1="53.2959" x2="100.6133" y2="53.2959">
	<stop  offset="0" style="stop-color:#90A6BB"/>
	<stop  offset="0.2033" style="stop-color:#738397"/>
	<stop  offset="0.5568" style="stop-color:#4D5A6B"/>
	<stop  offset="0.8345" style="stop-color:#374554"/>
	<stop  offset="1" style="stop-color:#2F3D4C"/>
</linearGradient>
<path fill="url(#SVGID_7_)" d="M99.791,18.799c-0.141-0.086-0.311,0.128-0.265,0.541c2.452,21.664-6.622,39.208-13.744,49.293
	c13.368-22.65,7.533-41.798,7.533-41.798c-0.122-0.064-0.252,0.124-0.193,0.465c4.718,26.646-12.251,47.037-14.623,49.733
	c-0.002-0.002-0.004-0.006-0.004-0.006c-0.018,0.026-0.038,0.051-0.059,0.075c-0.137,0.155-0.213,0.236-0.213,0.236l0.012,0.023
	c-5.626,7.236-14.722,10.29-14.722,10.29c10.411,1.387,13.818-6.73,13.818-6.73c1.077-0.649,1.535-1.328,1.681-1.932
	C106.949,48.94,99.791,18.799,99.791,18.799z"/>
</svg>
