<?xml version="1.0" encoding="utf-8"?>
<!-- Generator: Adobe Illustrator 15.0.2, SVG Export Plug-In  -->
<!DOCTYPE svg PUBLIC "-//W3C//DTD SVG 1.1//EN" "http://www.w3.org/Graphics/SVG/1.1/DTD/svg11.dtd" [
	<!ENTITY ns_flows "http://ns.adobe.com/Flows/1.0/">
]>
<svg version="1.1"
	 xmlns="http://www.w3.org/2000/svg" xmlns:xlink="http://www.w3.org/1999/xlink" xmlns:a="http://ns.adobe.com/AdobeSVGViewerExtensions/3.0/"
	 x="0px" y="0px" width="16px" height="16px" viewBox="-0.005 -0.873 16 16"
	 overflow="visible" enable-background="new -0.005 -0.873 16 16" xml:space="preserve">
<defs>
</defs>
<radialGradient id="SVGID_1_" cx="450.0488" cy="567.6523" r="117.5753" gradientTransform="matrix(0.0544 -0.0218 0.0218 0.0544 -33.2885 -16.32)" gradientUnits="userSpaceOnUse">
	<stop  offset="0.0184" style="stop-color:#DFE7EA"/>
	<stop  offset="0.2109" style="stop-color:#D5DEE4"/>
	<stop  offset="0.542" style="stop-color:#BBC8D4"/>
	<stop  offset="0.9695" style="stop-color:#93A8BD"/>
	<stop  offset="1" style="stop-color:#90A6BB"/>
</radialGradient>
<circle fill="url(#SVGID_1_)" cx="7.078" cy="7.079" r="6.949"/>
<path fill="#FDFEFF" d="M7.078,14.156c-2.907,0-5.485-1.743-6.568-4.444c-1.454-3.62,0.312-7.75,3.933-9.202
	C5.287,0.171,6.172,0,7.074,0c2.908,0,5.488,1.743,6.571,4.444c1.452,3.621-0.312,7.75-3.935,9.202
	C8.867,13.985,7.982,14.156,7.078,14.156z M7.074,0.254c-0.869,0-1.723,0.165-2.536,0.493c-3.491,1.399-5.193,5.38-3.792,8.87
	c1.044,2.604,3.53,4.285,6.332,4.285c0.871,0,1.725-0.165,2.538-0.493c3.492-1.399,5.193-5.38,3.792-8.871
	C12.364,1.936,9.878,0.254,7.074,0.254z"/>
<path fill="#FFFFFF" d="M4.492,1.785c0,0-0.297,0.789,0.158,1.072c0.634,0.394,1.771,1.036,1.014,3.121
	c-0.685,1.887,0.708,3.576,2.298,4.272c2.861,1.254,2.643,2.7,2.643,2.7c-0.482-1.936-2.743-2.195-2.743-2.195
	c-1.587-0.275-2.19,0.88-3.087,0.658c-1.521-0.377-1.89,0.254-1.89,0.254c3.419,3.871,8.037,1.641,8.037,1.641
	c0.962-1.333,1.161-3.08,1.154-4.373C12.04,3.586,4.492,1.785,4.492,1.785z"/>
<ellipse transform="matrix(0.8953 0.4454 -0.4454 0.8953 2.0372 -0.3185)" fill="#FFFFFF" cx="1.696" cy="4.175" rx="0.219" ry="0.438"/>
<ellipse transform="matrix(0.2017 0.9794 -0.9794 0.2017 5.4308 -4.7365)" fill="#FFFFFF" cx="5.621" cy="0.963" rx="0.218" ry="0.439"/>
<ellipse transform="matrix(-0.7935 0.6085 -0.6085 -0.7935 9.9997 17.6082)" fill="#FFFFFF" cx="2.013" cy="10.5" rx="0.219" ry="0.439"/>
<ellipse transform="matrix(-0.8949 0.4463 -0.4463 -0.8949 26.2889 2.7317)" fill="#FFFFFF" cx="12.823" cy="4.462" rx="0.219" ry="0.437"/>
<ellipse transform="matrix(-0.8392 -0.5438 0.5438 -0.8392 17.2256 25.9008)" fill="#FFFFFF" cx="12.442" cy="10.404" rx="0.218" ry="0.435"/>
<ellipse transform="matrix(0.6897 0.7241 -0.7241 0.6897 4.4424 -2.4974)" fill="#FFFFFF" cx="5.135" cy="3.934" rx="0.354" ry="0.414"/>
<ellipse transform="matrix(-0.2347 0.9721 -0.9721 -0.2347 13.6062 -5.0477)" fill="#FFFFFF" cx="8.79" cy="2.832" rx="0.354" ry="0.415"/>
<ellipse transform="matrix(0.9756 0.2197 -0.2197 0.9756 1.7294 -0.5236)" fill="#FFFFFF" cx="3.219" cy="7.513" rx="0.353" ry="0.415"/>
<circle fill="#FFFFFF" cx="6.559" cy="7.727" r="0.4"/>
<path fill="#FFFFFF" d="M6.074,7.784c-1.219,0-2.842-0.227-2.862-0.229L3.166,7.549l0.012-0.046C3.605,5.787,4.922,4.041,5.05,3.876
	C4.995,2.804,5.313,1.348,5.391,1.009C3.015,1.76,1.874,3.867,1.863,3.889L1.788,3.848C1.8,3.826,2.979,1.648,5.437,0.905
	l0.07-0.021L5.49,0.955C5.486,0.972,5.07,2.687,5.134,3.887l0.001,0.017l-0.01,0.013C5.111,3.934,3.729,5.715,3.271,7.478
	C3.587,7.52,5.42,7.756,6.526,7.688C6.625,7.404,7.479,4.958,8.755,2.81l0.072,0.044C7.482,5.117,6.606,7.715,6.599,7.741
	L6.59,7.767L6.561,7.77C6.41,7.779,6.246,7.784,6.074,7.784z"/>
<path fill="#FFFFFF" d="M6.215,11.938l-0.072-0.061c-2.86-2.442-2.965-4.345-2.967-4.362l0.085-0.004
	c0,0.019,0.105,1.855,2.867,4.239c-0.004-0.443,0.004-2.361,0.364-3.843l0.083,0.02c-0.407,1.667-0.362,3.893-0.362,3.915
	L6.215,11.938z"/>
<path fill="#FFFFFF" d="M12.784,4.481c-0.004-0.01-0.485-0.974-1.59-1.883c-0.986-0.812-2.68-1.738-5.201-1.636
	C6.56,1.144,7.99,1.68,8.819,2.744l0.008,0.01l0.006,0.075L8.749,2.836l-0.004-0.05c-1.03-1.312-2.994-1.804-3.015-1.81L5.465,0.911
	l0.273-0.018c2.689-0.181,4.483,0.793,5.513,1.643c1.117,0.92,1.604,1.899,1.609,1.908L12.784,4.481z"/>
<path fill="#FFFFFF" d="M2.036,10.656l-0.067-0.104c-2.021-3.161-0.39-6.31-0.373-6.341L1.648,4.11l0.025,0.111
	c0.46,1.965,1.566,3.25,1.577,3.263l0.023,0.028L3.251,7.541c-1.036,1.219-1.203,2.974-1.205,2.991L2.036,10.656z M1.619,4.356
	c-0.257,0.563-1.34,3.289,0.357,6.048c0.058-0.419,0.31-1.841,1.187-2.892C3.003,7.317,2.061,6.119,1.619,4.356z"/>
<path fill="#FFFFFF" d="M12.522,10.524l-0.033-0.142c-0.01-0.04-0.978-4.062-3.637-7.513L8.777,2.771l0.119,0.031
	c0.022,0.005,2.229,0.591,3.956,1.728l0.012,0.008l0.005,0.014c0.008,0.024,0.857,2.474-0.299,5.835L12.522,10.524z M8.997,2.919
	c2.334,3.077,3.344,6.57,3.539,7.305c1.036-3.138,0.321-5.436,0.258-5.631C11.312,3.621,9.479,3.057,8.997,2.919z"/>
<path fill="#FFFFFF" d="M6.872,13.32c-2.841,0-4.825-2.61-4.846-2.637l0.068-0.052c0.021,0.027,2.09,2.745,5.003,2.599l0.005,0.084
	C7.025,13.318,6.948,13.32,6.872,13.32z"/>
<path fill="#FFFFFF" d="M6.676,7.798l-0.05-0.068c2.607-1.88,6.152-3.189,6.189-3.203l0.028,0.079
	C12.81,4.618,9.275,5.925,6.676,7.798z"/>
<path fill="#FFFFFF" d="M12.517,10.521C9.573,9.69,6.564,7.781,6.534,7.763l0.047-0.07C6.61,7.71,9.607,9.611,12.54,10.44
	L12.517,10.521z"/>
<path fill="#FFFFFF" d="M7.596,13.28l-0.014-0.083c3.259-0.508,4.732-2.671,4.747-2.691l0.07,0.048
	C12.384,10.576,10.889,12.767,7.596,13.28z"/>
<path fill="#FFFFFF" d="M6.521,7.749C5.49,6.105,5.051,3.948,5.047,3.927l0.082-0.016C5.134,3.932,5.57,6.073,6.594,7.704
	L6.521,7.749z"/>
<path fill="#FFFFFF" d="M1.714,4.214L1.679,4.136C1.693,4.13,3.184,3.461,5.324,3.84L5.31,3.925C3.194,3.55,1.728,4.207,1.714,4.214
	z"/>
<path opacity="0.74" fill="#324051" d="M13.87,4.354c-0.841-2.096-2.542-3.588-4.532-4.236C9.272,0.165,9.036,0.356,8.981,0.623
	c-0.04,0.192,0,0.73,0.472,1.328C9.72,2.287,9.737,3.528,8.525,5.307c-1.203,1.767-1.05,4.142,0.351,5.188
	c2.318,1.73,1.744,2.608,1.744,2.608c-0.635-1.758-1.677-1.732-1.677-1.732c-1.654-0.228-1.738,0.772-3.043,1.236
	c-1.483,0.528-1.321,1.347-1.321,1.347c0.35,0.123,0.688,0.219,1.015,0.292c1.362,0.284,2.819,0.183,4.208-0.374
	C13.554,12.365,15.375,8.105,13.87,4.354z"/>
<linearGradient id="SVGID_2_" gradientUnits="userSpaceOnUse" x1="10.1045" y1="8.4785" x2="16.0068" y2="8.4785">
	<stop  offset="0" style="stop-color:#90A6BB"/>
	<stop  offset="0.2033" style="stop-color:#738397"/>
	<stop  offset="0.5568" style="stop-color:#4D5A6B"/>
	<stop  offset="0.8345" style="stop-color:#374554"/>
	<stop  offset="1" style="stop-color:#2F3D4C"/>
</linearGradient>
<path fill="url(#SVGID_2_)" d="M15.876,2.99c-0.023-0.013-0.051,0.021-0.044,0.085c0.391,3.447-1.052,6.238-2.186,7.842
	c2.127-3.603,1.198-6.647,1.198-6.647c-0.019-0.01-0.04,0.02-0.029,0.073c0.749,4.238-1.95,7.482-2.327,7.911l-0.001-0.002
	c-0.003,0.006-0.006,0.01-0.009,0.015c-0.021,0.023-0.033,0.036-0.033,0.036l0.002,0.004c-0.896,1.151-2.343,1.637-2.343,1.637
	c1.656,0.22,2.197-1.071,2.197-1.071c0.172-0.103,0.246-0.21,0.269-0.306C17.015,7.785,15.876,2.99,15.876,2.99z"/>
</svg>
