<?xml version="1.0" encoding="utf-8"?>
<!-- Generator: Adobe Illustrator 15.0.2, SVG Export Plug-In  -->
<!DOCTYPE svg PUBLIC "-//W3C//DTD SVG 1.1//EN" "http://www.w3.org/Graphics/SVG/1.1/DTD/svg11.dtd" [
	<!ENTITY ns_flows "http://ns.adobe.com/Flows/1.0/">
]>
<svg version="1.1"
	 xmlns="http://www.w3.org/2000/svg" xmlns:xlink="http://www.w3.org/1999/xlink" xmlns:a="http://ns.adobe.com/AdobeSVGViewerExtensions/3.0/"
	 x="0px" y="0px" width="32px" height="32px" viewBox="-0.018 -1.431 32 32"
	 overflow="visible" enable-background="new -0.018 -1.431 32 32" xml:space="preserve">
<defs>
</defs>
<radialGradient id="SVGID_1_" cx="-159.916" cy="136.6436" r="117.5791" gradientTransform="matrix(0.1085 -0.0435 0.0435 0.1085 18.5608 -12.3159)" gradientUnits="userSpaceOnUse">
	<stop  offset="0.0184" style="stop-color:#DFE7EA"/>
	<stop  offset="0.2109" style="stop-color:#D5DEE4"/>
	<stop  offset="0.542" style="stop-color:#BBC8D4"/>
	<stop  offset="0.9695" style="stop-color:#93A8BD"/>
	<stop  offset="1" style="stop-color:#90A6BB"/>
</radialGradient>
<circle fill="url(#SVGID_1_)" cx="14.105" cy="14.107" r="13.851"/>
<path fill="#FDFEFF" d="M14.108,28.215c-5.796,0-10.935-3.477-13.094-8.857c-2.896-7.217,0.622-15.445,7.84-18.341
	C10.537,0.342,12.302,0,14.1,0c5.797,0,10.938,3.476,13.096,8.856c2.895,7.219-0.621,15.446-7.84,18.342
	C17.672,27.873,15.907,28.215,14.108,28.215z M14.1,0.506c-1.731,0-3.434,0.33-5.057,0.982C2.085,4.278-1.306,12.211,1.485,19.169
	c2.081,5.188,7.035,8.539,12.623,8.539c1.733,0,3.435-0.33,5.058-0.981c6.959-2.79,10.35-10.723,7.559-17.682
	C24.645,3.858,19.688,0.506,14.1,0.506z"/>
<path fill="#FFFFFF" d="M8.953,3.558c0,0-0.592,1.571,0.317,2.138c1.261,0.785,3.527,2.065,2.019,6.221
	c-1.364,3.761,1.41,7.126,4.578,8.516c5.702,2.498,5.268,5.379,5.268,5.379c-0.96-3.854-5.467-4.372-5.467-4.372
	c-3.162-0.551-4.365,1.75-6.151,1.31c-3.031-0.75-3.768,0.506-3.768,0.506c6.815,7.716,16.02,3.269,16.02,3.269
	c1.917-2.654,2.315-6.136,2.3-8.712C23.996,7.147,8.953,3.558,8.953,3.558z"/>
<ellipse transform="matrix(0.8967 0.4427 -0.4427 0.8967 4.0333 -0.6373)" fill="#FFFFFF" cx="3.382" cy="8.321" rx="0.436" ry="0.872"/>
<ellipse transform="matrix(0.2041 0.979 -0.979 0.2041 10.7957 -9.4396)" fill="#FFFFFF" cx="11.203" cy="1.919" rx="0.435" ry="0.874"/>
<ellipse transform="matrix(-0.7934 0.6087 -0.6087 -0.7934 19.9314 35.09)" fill="#FFFFFF" cx="4.01" cy="20.928" rx="0.436" ry="0.872"/>
<ellipse transform="matrix(-0.8955 0.445 -0.445 -0.8955 52.4004 5.4873)" fill="#FFFFFF" cx="25.556" cy="8.894" rx="0.436" ry="0.872"/>
<ellipse transform="matrix(-0.8389 -0.5443 0.5443 -0.8389 34.3104 51.6287)" fill="#FFFFFF" cx="24.796" cy="20.736" rx="0.436" ry="0.871"/>
<ellipse transform="matrix(0.6892 0.7245 -0.7245 0.6892 8.8611 -4.9792)" fill="#FFFFFF" cx="10.235" cy="7.84" rx="0.705" ry="0.827"/>
<ellipse transform="matrix(-0.2334 0.9724 -0.9724 -0.2334 27.0966 -10.0732)" fill="#FFFFFF" cx="17.519" cy="5.645" rx="0.705" ry="0.827"/>
<ellipse transform="matrix(0.9754 0.2205 -0.2205 0.9754 3.459 -1.0457)" fill="#FFFFFF" cx="6.415" cy="14.975" rx="0.704" ry="0.826"/>
<circle fill="#FFFFFF" cx="13.071" cy="15.401" r="0.797"/>
<path fill="#FFFFFF" d="M12.105,15.516c-2.427,0-5.665-0.453-5.702-0.459L6.31,15.044l0.023-0.09c0.855-3.421,3.476-6.9,3.729-7.229
	c-0.107-2.134,0.526-5.038,0.682-5.715c-4.735,1.5-7.009,5.698-7.031,5.741l-0.15-0.08c0.023-0.044,2.373-4.386,7.273-5.866
	l0.142-0.043l-0.035,0.145c-0.008,0.033-0.838,3.446-0.71,5.841l0.001,0.031l-0.019,0.025c-0.028,0.036-2.784,3.587-3.694,7.1
	c0.63,0.084,4.282,0.557,6.488,0.417c0.193-0.564,1.896-5.438,4.438-9.719l0.146,0.086c-2.681,4.513-4.425,9.688-4.442,9.74
	l-0.018,0.053l-0.057,0.005C12.776,15.506,12.449,15.516,12.105,15.516z"/>
<path fill="#FFFFFF" d="M12.388,23.791l-0.145-0.122c-5.701-4.863-5.911-8.654-5.913-8.691l0.169-0.008
	c0.001,0.037,0.211,3.699,5.713,8.449c-0.007-0.884,0.008-4.707,0.728-7.659l0.165,0.04c-0.812,3.32-0.722,7.758-0.722,7.803
	L12.388,23.791z"/>
<path fill="#FFFFFF" d="M25.479,8.932c-0.009-0.02-0.967-1.94-3.167-3.753c-1.966-1.617-5.342-3.465-10.368-3.258
	c1.131,0.357,3.981,1.427,5.635,3.55l0.017,0.02l0.01,0.148L17.436,5.65l-0.007-0.097c-2.053-2.614-5.967-3.598-6.007-3.607
	l-0.53-0.129l0.546-0.036c5.359-0.359,8.935,1.581,10.987,3.274c2.226,1.833,3.196,3.782,3.207,3.801L25.479,8.932z"/>
<path fill="#FFFFFF" d="M4.059,21.239L3.925,21.03C-0.105,14.733,3.146,8.457,3.18,8.394l0.104-0.199l0.052,0.22
	c0.918,3.917,3.12,6.479,3.143,6.504l0.048,0.056l-0.048,0.055c-2.063,2.43-2.396,5.929-2.399,5.964L4.059,21.239z M3.228,8.684
	C2.715,9.807,0.557,15.238,3.94,20.738c0.115-0.835,0.617-3.671,2.363-5.765C5.984,14.585,4.106,12.195,3.228,8.684z"/>
<path fill="#FFFFFF" d="M24.958,20.979l-0.067-0.284c-0.019-0.081-1.947-8.097-7.248-14.975l-0.15-0.195l0.239,0.063
	c0.044,0.011,4.442,1.176,7.885,3.441l0.023,0.016l0.009,0.027c0.018,0.048,1.709,4.93-0.596,11.63L24.958,20.979z M17.931,5.818
	c4.654,6.134,6.666,13.094,7.055,14.559c2.064-6.253,0.642-10.834,0.514-11.223C22.546,7.219,18.893,6.094,17.931,5.818z"/>
<path fill="#FFFFFF" d="M13.695,26.547c-5.66,0-9.615-5.201-9.656-5.255l0.136-0.103c0.041,0.057,4.164,5.472,9.973,5.178
	l0.008,0.169C14.002,26.544,13.848,26.547,13.695,26.547z"/>
<path fill="#FFFFFF" d="M13.305,15.542l-0.1-0.137c5.199-3.748,12.264-6.358,12.336-6.384l0.058,0.159
	C25.528,9.205,18.485,11.809,13.305,15.542z"/>
<path fill="#FFFFFF" d="M24.946,20.97c-5.867-1.656-11.861-5.46-11.922-5.497l0.092-0.143c0.06,0.037,6.033,3.827,11.876,5.477
	L24.946,20.97z"/>
<path fill="#FFFFFF" d="M15.138,26.469l-0.026-0.168c6.492-1.011,9.432-5.318,9.461-5.362l0.141,0.094
	C24.684,21.077,21.701,25.445,15.138,26.469z"/>
<path fill="#FFFFFF" d="M12.998,15.444c-2.056-3.277-2.933-7.575-2.941-7.619l0.167-0.032c0.009,0.043,0.879,4.312,2.918,7.562
	L12.998,15.444z"/>
<path fill="#FFFFFF" d="M3.416,8.398l-0.07-0.154c0.029-0.014,3-1.345,7.266-0.59l-0.029,0.167C6.366,7.076,3.444,8.385,3.416,8.398
	z"/>
<path opacity="0.74" fill="#324051" d="M27.644,8.678c-1.676-4.176-5.063-7.153-9.033-8.443c-0.13,0.097-0.603,0.477-0.711,1.008
	c-0.078,0.385,0.001,1.457,0.942,2.646c0.532,0.671,0.566,3.144-1.85,6.688c-2.398,3.521-2.094,8.256,0.697,10.34
	c4.621,3.449,3.477,5.196,3.477,5.196c-1.264-3.503-3.339-3.454-3.339-3.454c-3.301-0.451-3.468,1.54-6.067,2.467
	c-2.956,1.054-2.633,2.685-2.633,2.685c0.696,0.244,1.369,0.436,2.021,0.581c2.715,0.565,5.62,0.363,8.386-0.745
	C27.013,24.646,30.644,16.154,27.644,8.678z"/>
<linearGradient id="SVGID_2_" gradientUnits="userSpaceOnUse" x1="20.1387" y1="16.8975" x2="31.9014" y2="16.8975">
	<stop  offset="0" style="stop-color:#90A6BB"/>
	<stop  offset="0.2033" style="stop-color:#738397"/>
	<stop  offset="0.5568" style="stop-color:#4D5A6B"/>
	<stop  offset="0.8345" style="stop-color:#374554"/>
	<stop  offset="1" style="stop-color:#2F3D4C"/>
</linearGradient>
<path fill="url(#SVGID_2_)" d="M31.641,5.96c-0.045-0.026-0.1,0.041-0.085,0.172c0.777,6.869-2.099,12.431-4.357,15.628
	c4.239-7.181,2.389-13.252,2.389-13.252c-0.039-0.02-0.08,0.039-0.061,0.148c1.495,8.448-3.885,14.912-4.637,15.768
	c0-0.001-0.001-0.003-0.001-0.003c-0.007,0.009-0.013,0.017-0.019,0.025c-0.043,0.049-0.067,0.074-0.067,0.074l0.004,0.008
	c-1.784,2.295-4.668,3.263-4.668,3.263c3.301,0.438,4.38-2.135,4.38-2.135c0.343-0.205,0.488-0.421,0.534-0.611
	C33.909,15.517,31.641,5.96,31.641,5.96z"/>
</svg>
