<?xml version="1.0" encoding="utf-8"?>
<!-- Generator: Adobe Illustrator 15.0.2, SVG Export Plug-In  -->
<!DOCTYPE svg PUBLIC "-//W3C//DTD SVG 1.1//EN" "http://www.w3.org/Graphics/SVG/1.1/DTD/svg11.dtd" [
	<!ENTITY ns_flows "http://ns.adobe.com/Flows/1.0/">
]>
<svg version="1.1"
	 xmlns="http://www.w3.org/2000/svg" xmlns:xlink="http://www.w3.org/1999/xlink" xmlns:a="http://ns.adobe.com/AdobeSVGViewerExtensions/3.0/"
	 x="0px" y="0px" width="24px" height="24px" viewBox="-0.009 -1.164 24 24"
	 overflow="visible" enable-background="new -0.009 -1.164 24 24" xml:space="preserve">
<defs>
</defs>
<radialGradient id="SVGID_1_" cx="127.459" cy="334.3027" r="117.5822" gradientTransform="matrix(0.0812 -0.0326 0.0326 0.0812 -15.8763 -15.9109)" gradientUnits="userSpaceOnUse">
	<stop  offset="0.0184" style="stop-color:#DFE7EA"/>
	<stop  offset="0.2109" style="stop-color:#D5DEE4"/>
	<stop  offset="0.542" style="stop-color:#BBC8D4"/>
	<stop  offset="0.9695" style="stop-color:#93A8BD"/>
	<stop  offset="1" style="stop-color:#90A6BB"/>
</radialGradient>
<circle fill="url(#SVGID_1_)" cx="10.561" cy="10.562" r="10.37"/>
<path fill="#FDFEFF" d="M10.562,21.124c-4.339,0-8.187-2.603-9.803-6.631C-1.408,9.09,1.226,2.929,6.63,0.761
	C7.89,0.256,9.21,0,10.557,0c4.34,0,8.188,2.603,9.805,6.631c2.167,5.404-0.466,11.564-5.87,13.732
	C13.23,20.868,11.91,21.124,10.562,21.124z M10.557,0.379c-1.297,0-2.571,0.247-3.786,0.735C1.562,3.203-0.978,9.143,1.112,14.352
	c1.558,3.884,5.268,6.394,9.45,6.394c1.298,0,2.572-0.248,3.787-0.735c5.21-2.089,7.748-8.028,5.659-13.238
	C18.451,2.889,14.74,0.379,10.557,0.379z"/>
<path fill="#FFFFFF" d="M6.703,2.663c0,0-0.443,1.177,0.237,1.601c0.944,0.588,2.642,1.547,1.512,4.657
	c-1.021,2.816,1.056,5.336,3.428,6.376c4.269,1.87,3.943,4.027,3.943,4.027c-0.719-2.886-4.093-3.273-4.093-3.273
	c-2.367-0.412-3.269,1.311-4.605,0.98c-2.27-0.562-2.82,0.379-2.82,0.379c5.103,5.776,11.993,2.447,11.993,2.447
	c1.436-1.987,1.733-4.594,1.722-6.522C17.966,5.352,6.703,2.663,6.703,2.663z"/>
<ellipse transform="matrix(0.8965 0.443 -0.443 0.8965 3.0218 -0.4769)" fill="#FFFFFF" cx="2.532" cy="6.229" rx="0.326" ry="0.654"/>
<ellipse transform="matrix(0.2039 0.979 -0.979 0.2039 8.0843 -7.0675)" fill="#FFFFFF" cx="8.388" cy="1.437" rx="0.326" ry="0.654"/>
<ellipse transform="matrix(-0.7937 0.6083 -0.6083 -0.7937 14.9171 26.2777)" fill="#FFFFFF" cx="3.002" cy="15.668" rx="0.327" ry="0.653"/>
<ellipse transform="matrix(-0.8956 0.4448 -0.4448 -0.8956 39.2323 4.1114)" fill="#FFFFFF" cx="19.134" cy="6.659" rx="0.326" ry="0.652"/>
<ellipse transform="matrix(-0.8389 -0.5443 0.5443 -0.8389 25.6883 38.6544)" fill="#FFFFFF" cx="18.565" cy="15.525" rx="0.327" ry="0.652"/>
<ellipse transform="matrix(0.6893 0.7245 -0.7245 0.6893 6.6331 -3.7277)" fill="#FFFFFF" cx="7.663" cy="5.87" rx="0.528" ry="0.619"/>
<ellipse transform="matrix(-0.2332 0.9724 -0.9724 -0.2332 20.284 -7.5433)" fill="#FFFFFF" cx="13.116" cy="4.226" rx="0.528" ry="0.619"/>
<ellipse transform="matrix(0.9754 0.2203 -0.2203 0.9754 2.5873 -0.7825)" fill="#FFFFFF" cx="4.803" cy="11.211" rx="0.528" ry="0.619"/>
<circle fill="#FFFFFF" cx="9.786" cy="11.53" r="0.597"/>
<path fill="#FFFFFF" d="M9.063,11.616c-1.817,0-4.241-0.339-4.27-0.344l-0.07-0.009l0.018-0.067
	c0.641-2.562,2.603-5.167,2.793-5.413c-0.081-1.598,0.394-3.771,0.51-4.278C4.499,2.628,2.797,5.771,2.78,5.803l-0.113-0.06
	C2.685,5.71,4.444,2.46,8.113,1.352l0.105-0.032L8.192,1.427C8.187,1.452,7.565,4.008,7.661,5.8l0.001,0.023l-0.015,0.02
	c-0.021,0.026-2.084,2.686-2.766,5.315c0.472,0.062,3.206,0.416,4.857,0.312c0.146-0.422,1.42-4.071,3.323-7.276l0.109,0.064
	c-2.007,3.379-3.313,7.254-3.326,7.293L9.833,11.59L9.79,11.594C9.565,11.609,9.32,11.616,9.063,11.616z"/>
<path fill="#FFFFFF" d="M9.274,17.812l-0.108-0.092c-4.268-3.642-4.425-6.479-4.427-6.507l0.127-0.006
	c0,0.027,0.157,2.77,4.277,6.325c-0.006-0.661,0.006-3.523,0.544-5.734l0.124,0.03c-0.607,2.486-0.54,5.809-0.54,5.842L9.274,17.812
	z"/>
<path fill="#FFFFFF" d="M19.075,6.687c-0.006-0.014-0.724-1.452-2.371-2.81c-1.472-1.211-3.999-2.594-7.762-2.438
	c0.847,0.268,2.98,1.068,4.219,2.657l0.012,0.015l0.008,0.111L13.054,4.23l-0.005-0.072c-1.537-1.957-4.467-2.693-4.497-2.701
	L8.154,1.36l0.409-0.026c4.013-0.27,6.689,1.184,8.226,2.451c1.667,1.372,2.394,2.832,2.401,2.846L19.075,6.687z"/>
<path fill="#FFFFFF" d="M3.039,15.901l-0.101-0.156c-3.018-4.715-0.583-9.413-0.558-9.461l0.078-0.149L2.498,6.3
	c0.687,2.933,2.336,4.85,2.353,4.869l0.036,0.042l-0.036,0.041c-1.545,1.818-1.794,4.438-1.797,4.465L3.039,15.901z M2.417,6.501
	c-0.384,0.841-2,4.908,0.533,9.025c0.086-0.625,0.462-2.748,1.77-4.315C4.48,10.92,3.074,9.131,2.417,6.501z"/>
<path fill="#FFFFFF" d="M18.686,15.706l-0.05-0.213c-0.015-0.061-1.458-6.062-5.427-11.211l-0.112-0.146l0.179,0.048
	c0.033,0.008,3.326,0.88,5.903,2.576l0.018,0.012l0.007,0.021c0.013,0.036,1.279,3.691-0.446,8.707L18.686,15.706z M13.425,4.356
	c3.484,4.592,4.99,9.803,5.281,10.899c1.546-4.682,0.48-8.111,0.385-8.402C16.88,5.404,14.145,4.562,13.425,4.356z"/>
<path fill="#FFFFFF" d="M10.254,19.875c-4.238,0-7.199-3.894-7.229-3.934l0.102-0.077c0.03,0.042,3.117,4.097,7.466,3.877
	l0.006,0.126C10.483,19.873,10.368,19.875,10.254,19.875z"/>
<path fill="#FFFFFF" d="M9.961,11.636l-0.074-0.102c3.893-2.807,9.182-4.761,9.235-4.78l0.043,0.119
	C19.113,6.892,13.84,8.841,9.961,11.636z"/>
<path fill="#FFFFFF" d="M18.677,15.7c-4.393-1.24-8.88-4.088-8.926-4.116l0.069-0.106c0.044,0.027,4.517,2.865,8.892,4.101
	L18.677,15.7z"/>
<path fill="#FFFFFF" d="M11.334,19.816l-0.021-0.125c4.861-0.757,7.062-3.982,7.084-4.015l0.104,0.069
	C18.48,15.78,16.247,19.051,11.334,19.816z"/>
<path fill="#FFFFFF" d="M9.731,11.563C8.192,9.109,7.536,5.892,7.529,5.858l0.125-0.023c0.007,0.031,0.658,3.228,2.185,5.661
	L9.731,11.563z"/>
<path fill="#FFFFFF" d="M2.558,6.288L2.505,6.172c0.022-0.01,2.246-1.007,5.439-0.441L7.923,5.855
	C4.767,5.298,2.579,6.277,2.558,6.288z"/>
<path opacity="0.74" fill="#324051" d="M20.696,6.497c-1.254-3.127-3.791-5.355-6.763-6.321c-0.098,0.072-0.451,0.356-0.532,0.754
	c-0.059,0.288,0.001,1.091,0.705,1.981c0.398,0.503,0.425,2.354-1.385,5.008c-1.795,2.637-1.567,6.181,0.522,7.741
	c3.46,2.582,2.603,3.891,2.603,3.891c-0.946-2.623-2.5-2.586-2.5-2.586c-2.471-0.338-2.596,1.152-4.542,1.847
	c-2.213,0.789-1.972,2.01-1.972,2.01c0.521,0.183,1.025,0.326,1.514,0.436c2.033,0.423,4.208,0.271,6.278-0.559
	C20.225,18.452,22.942,12.095,20.696,6.497z"/>
<linearGradient id="SVGID_2_" gradientUnits="userSpaceOnUse" x1="15.0781" y1="12.6514" x2="23.8838" y2="12.6514">
	<stop  offset="0" style="stop-color:#90A6BB"/>
	<stop  offset="0.2033" style="stop-color:#738397"/>
	<stop  offset="0.5568" style="stop-color:#4D5A6B"/>
	<stop  offset="0.8345" style="stop-color:#374554"/>
	<stop  offset="1" style="stop-color:#2F3D4C"/>
</linearGradient>
<path fill="url(#SVGID_2_)" d="M23.689,4.462c-0.034-0.02-0.075,0.031-0.064,0.129c0.582,5.143-1.57,9.307-3.262,11.7
	c3.174-5.376,1.788-9.921,1.788-9.921c-0.029-0.015-0.06,0.029-0.045,0.11c1.119,6.325-2.909,11.165-3.472,11.806
	c0-0.001-0.001-0.003-0.001-0.003c-0.005,0.007-0.01,0.013-0.014,0.02c-0.032,0.036-0.051,0.056-0.051,0.056l0.003,0.006
	c-1.336,1.718-3.494,2.442-3.494,2.442c2.471,0.328,3.278-1.599,3.278-1.599c0.257-0.153,0.366-0.314,0.4-0.457
	C25.388,11.617,23.689,4.462,23.689,4.462z"/>
</svg>
