<?xml version="1.0" encoding="utf-8"?>
<!-- Generator: Adobe Illustrator 15.0.2, SVG Export Plug-In  -->
<!DOCTYPE svg PUBLIC "-//W3C//DTD SVG 1.1//EN" "http://www.w3.org/Graphics/SVG/1.1/DTD/svg11.dtd" [
	<!ENTITY ns_flows "http://ns.adobe.com/Flows/1.0/">
]>
<svg version="1.1"
	 xmlns="http://www.w3.org/2000/svg" xmlns:xlink="http://www.w3.org/1999/xlink" xmlns:a="http://ns.adobe.com/AdobeSVGViewerExtensions/3.0/"
	 x="0px" y="0px" width="64px" height="64px" viewBox="0.058 -3.157 64 64"
	 overflow="visible" enable-background="new 0.058 -3.157 64 64" xml:space="preserve">
<defs>
</defs>
<radialGradient id="SVGID_1_" cx="-288.9639" cy="-15.5547" r="117.5802" gradientTransform="matrix(0.2166 -0.0869 0.0869 0.2166 78.2407 -2.8406)" gradientUnits="userSpaceOnUse">
	<stop  offset="0.0184" style="stop-color:#DFE7EA"/>
	<stop  offset="0.2109" style="stop-color:#D5DEE4"/>
	<stop  offset="0.542" style="stop-color:#BBC8D4"/>
	<stop  offset="0.9695" style="stop-color:#93A8BD"/>
	<stop  offset="1" style="stop-color:#90A6BB"/>
</radialGradient>
<circle fill="url(#SVGID_1_)" cx="28.168" cy="28.174" r="27.661"/>
<path fill="#FDFEFF" d="M28.176,56.349c-11.575,0-21.839-6.942-26.15-17.688C-3.757,24.245,3.268,7.814,17.684,2.031
	C21.044,0.683,24.569,0,28.16,0c11.575,0,21.842,6.942,26.151,17.688c5.783,14.416-1.242,30.848-15.656,36.629
	C35.294,55.666,31.769,56.349,28.176,56.349z M28.16,1.013c-3.46,0-6.859,0.658-10.1,1.96C4.163,8.546-2.607,24.388,2.967,38.282
	c4.154,10.36,14.051,17.055,25.209,17.055c3.462,0,6.861-0.659,10.102-1.96c13.897-5.572,20.668-21.414,15.095-35.312
	C49.217,7.707,39.32,1.013,28.16,1.013z"/>
<path fill="#FFFFFF" d="M17.88,7.105c0,0-1.18,3.14,0.637,4.271c2.518,1.565,7.042,4.122,4.027,12.422
	c-2.725,7.51,2.816,14.232,9.145,17.007c11.389,4.989,10.521,10.741,10.521,10.741c-1.916-7.696-10.919-8.73-10.919-8.73
	c-6.312-1.101-8.718,3.497-12.285,2.614c-6.052-1.499-7.522,1.012-7.522,1.012c13.609,15.409,31.991,6.527,31.991,6.527
	c3.83-5.301,4.624-12.255,4.592-17.399C47.924,14.274,17.88,7.105,17.88,7.105z"/>
<ellipse transform="matrix(0.8966 0.4429 -0.4429 0.8966 8.0596 -1.2717)" fill="#FFFFFF" cx="6.752" cy="16.619" rx="0.87" ry="1.741"/>
<ellipse transform="matrix(0.2049 0.9788 -0.9788 0.2049 21.5422 -18.8495)" fill="#FFFFFF" cx="22.373" cy="3.834" rx="0.87" ry="1.741"/>
<ellipse transform="matrix(-0.793 0.6092 -0.6092 -0.793 39.8247 70.0619)" fill="#FFFFFF" cx="8.01" cy="41.796" rx="0.871" ry="1.74"/>
<ellipse transform="matrix(-0.8952 0.4456 -0.4456 -0.8952 104.6447 10.9192)" fill="#FFFFFF" cx="51.039" cy="17.763" rx="0.87" ry="1.74"/>
<ellipse transform="matrix(-0.8392 -0.5438 0.5438 -0.8392 68.5598 103.0986)" fill="#FFFFFF" cx="49.521" cy="41.414" rx="0.871" ry="1.741"/>
<ellipse transform="matrix(0.6892 0.7246 -0.7246 0.6892 17.698 -9.9438)" fill="#FFFFFF" cx="20.44" cy="15.658" rx="1.408" ry="1.652"/>
<ellipse transform="matrix(-0.2331 0.9724 -0.9724 -0.2331 54.1086 -20.1219)" fill="#FFFFFF" cx="34.988" cy="11.274" rx="1.407" ry="1.653"/>
<path fill="#FFFFFF" d="M14.184,30.215c-0.199,0.891-0.979,1.474-1.736,1.302c-0.759-0.171-1.21-1.03-1.009-1.92
	c0.201-0.893,0.979-1.475,1.736-1.304C13.934,28.464,14.386,29.325,14.184,30.215z"/>
<circle fill="#FFFFFF" cx="26.103" cy="30.758" r="1.591"/>
<path fill="#FFFFFF" d="M24.178,30.985c-4.848,0-11.316-0.902-11.391-0.913l-0.186-0.026l0.047-0.181
	c1.708-6.832,6.94-13.779,7.446-14.438c-0.212-4.26,1.051-10.061,1.362-11.411C12,7.009,7.46,15.394,7.414,15.479L7.115,15.32
	c0.047-0.088,4.738-8.759,14.525-11.716l0.283-0.084l-0.071,0.287c-0.016,0.067-1.672,6.884-1.417,11.664l0.002,0.062l-0.038,0.051
	c-0.057,0.071-5.559,7.165-7.378,14.179c1.258,0.168,8.553,1.114,12.958,0.833c0.387-1.128,3.786-10.86,8.863-19.409l0.291,0.172
	c-5.354,9.013-8.836,19.348-8.871,19.452l-0.036,0.105l-0.111,0.008C25.517,30.967,24.864,30.985,24.178,30.985z"/>
<path fill="#FFFFFF" d="M24.739,47.515l-0.287-0.243c-11.388-9.713-11.806-17.285-11.81-17.36l0.337-0.014
	c0.003,0.074,0.424,7.388,11.409,16.872c-0.015-1.765,0.016-9.4,1.453-15.294l0.328,0.08c-1.619,6.631-1.442,15.494-1.44,15.581
	L24.739,47.515z"/>
<path fill="#FFFFFF" d="M50.885,17.838c-0.019-0.038-1.933-3.875-6.327-7.492c-3.925-3.23-10.667-6.923-20.705-6.507
	c2.257,0.713,7.951,2.848,11.252,7.088l0.033,0.039l0.02,0.296l-0.337,0.023l-0.013-0.191c-4.101-5.223-11.917-7.186-11.996-7.205
	l-1.058-0.26l1.087-0.072c10.706-0.718,17.844,3.16,21.944,6.539c4.444,3.663,6.385,7.555,6.404,7.593L50.885,17.838z"/>
<path fill="#FFFFFF" d="M8.104,42.419l-0.267-0.418C-0.209,29.425,6.282,16.889,6.35,16.765l0.211-0.398l0.103,0.438
	c1.832,7.822,6.231,12.938,6.275,12.99l0.095,0.108l-0.095,0.11c-4.122,4.853-4.784,11.842-4.791,11.912L8.104,42.419z
	 M6.446,17.343c-1.025,2.242-5.335,13.091,1.423,24.074c0.229-1.667,1.233-7.331,4.722-11.514
	C11.951,29.129,8.201,24.356,6.446,17.343z"/>
<path fill="#FFFFFF" d="M49.843,41.897l-0.133-0.568c-0.038-0.16-3.889-16.171-14.476-29.903l-0.302-0.392l0.479,0.125
	c0.088,0.023,8.873,2.351,15.748,6.875l0.046,0.031l0.019,0.053c0.036,0.097,3.413,9.848-1.189,23.227L49.843,41.897z M35.808,11.62
	c9.299,12.249,13.314,26.149,14.089,29.075c4.125-12.486,1.284-21.636,1.028-22.41C45.027,14.416,37.732,12.173,35.808,11.62z"/>
<path fill="#FFFFFF" d="M27.353,53.02c-11.306,0-19.204-10.389-19.285-10.496l0.271-0.204c0.081,0.111,8.315,10.927,19.914,10.34
	l0.017,0.337C27.963,53.012,27.657,53.02,27.353,53.02z"/>
<path fill="#FFFFFF" d="M26.57,31.04l-0.198-0.273c10.386-7.485,24.493-12.697,24.636-12.749l0.115,0.315
	C50.983,18.385,36.917,23.584,26.57,31.04z"/>
<path fill="#FFFFFF" d="M49.82,41.88c-11.718-3.31-23.688-10.904-23.808-10.98l0.182-0.283c0.119,0.074,12.05,7.643,23.718,10.938
	L49.82,41.88z"/>
<path fill="#FFFFFF" d="M30.233,52.86l-0.054-0.333c12.965-2.02,18.837-10.623,18.896-10.71l0.279,0.188
	C49.297,42.093,43.342,50.817,30.233,52.86z"/>
<path fill="#FFFFFF" d="M25.959,30.847c-4.106-6.547-5.856-15.131-5.874-15.217l0.331-0.065c0.018,0.085,1.756,8.609,5.83,15.103
	L25.959,30.847z"/>
<path fill="#FFFFFF" d="M6.822,16.773l-0.141-0.308c0.06-0.027,5.99-2.685,14.51-1.178l-0.059,0.332
	C12.715,14.133,6.881,16.746,6.822,16.773z"/>
<path opacity="0.74" fill="#324051" d="M55.208,17.33C51.861,8.989,45.095,3.046,37.168,0.468c-0.262,0.193-1.204,0.95-1.42,2.013
	c-0.156,0.77,0.003,2.909,1.882,5.286c1.061,1.341,1.129,6.279-3.693,13.358c-4.79,7.033-4.183,16.489,1.391,20.648
	c9.229,6.889,6.943,10.377,6.943,10.377c-2.523-6.994-6.669-6.896-6.669-6.896c-6.59-0.902-6.924,3.076-12.115,4.927
	c-5.903,2.104-5.259,5.36-5.259,5.36c1.39,0.49,2.735,0.872,4.037,1.163c5.422,1.128,11.225,0.726,16.749-1.49
	C53.947,49.223,61.197,32.263,55.208,17.33z"/>
<linearGradient id="SVGID_2_" gradientUnits="userSpaceOnUse" x1="40.2178" y1="33.7471" x2="63.709" y2="33.7471">
	<stop  offset="0" style="stop-color:#90A6BB"/>
	<stop  offset="0.2033" style="stop-color:#738397"/>
	<stop  offset="0.5568" style="stop-color:#4D5A6B"/>
	<stop  offset="0.8345" style="stop-color:#374554"/>
	<stop  offset="1" style="stop-color:#2F3D4C"/>
</linearGradient>
<path fill="url(#SVGID_2_)" d="M63.188,11.904c-0.088-0.055-0.197,0.08-0.167,0.342c1.552,13.717-4.193,24.825-8.703,31.212
	c8.465-14.342,4.771-26.466,4.771-26.466c-0.078-0.041-0.161,0.078-0.123,0.295c2.987,16.871-7.757,29.783-9.259,31.49
	c0-0.002-0.002-0.004-0.002-0.004c-0.014,0.017-0.025,0.032-0.037,0.049c-0.088,0.098-0.135,0.148-0.135,0.148l0.008,0.016
	c-3.563,4.582-9.323,6.515-9.323,6.515c6.593,0.878,8.749-4.262,8.749-4.262c0.683-0.41,0.974-0.841,1.065-1.223
	C67.721,30.988,63.188,11.904,63.188,11.904z"/>
</svg>
